# xmcd
#
# Track frame offsets: 
#        150
#        23308
#        41774
#        61674
#        83399
#        108556
#        132323
#        151180
#        171818
#        192934
#        212139
#        234689
#        255414
#        279127
#        298237
#        317512
#
# Disc length: 4515 seconds
#
# Revision: 0
# Processed by: cddbd v1.4PL0 Copyright (c) Steve Scherf et al.
# Submitted via: ExactAudioCopy v0.95a4
#
DISCID=ce11a110
DTITLE=腾格尔 - 家园
DYEAR=1900
DGENRE=Pop
TTITLE0=母亲湖的泪水
TTITLE1=家园
TTITLE2=爱你的日子
TTITLE3=多少年
TTITLE4=赛莱姆姑娘
TTITLE5=SanBaiNo
TTITLE6=可爱的一朵玫瑰
TTITLE7=不愿等待就走你的
TTITLE8=小河淌水
TTITLE9=多少年
TTITLE10=我们是永远的苍狼
TTITLE11=敕勒歌
TTITLE12=天堂
TTITLE13=蒙古人
TTITLE14=怀念战友
TTITLE15=父亲和我
EXTD=
EXTT0=
EXTT1=
EXTT2=
EXTT3=
EXTT4=
EXTT5=
EXTT6=
EXTT7=
EXTT8=
EXTT9=
EXTT10=
EXTT11=
EXTT12=
EXTT13=
EXTT14=
EXTT15=
PLAYORDER=
